<?xml version="1.0" encoding="UTF-8" standalone="no"?>
<svg
   xmlns:dc="http://purl.org/dc/elements/1.1/"
   xmlns:cc="http://creativecommons.org/ns#"
   xmlns:rdf="http://www.w3.org/1999/02/22-rdf-syntax-ns#"
   xmlns:svg="http://www.w3.org/2000/svg"
   xmlns="http://www.w3.org/2000/svg"
   xmlns:sodipodi="http://sodipodi.sourceforge.net/DTD/sodipodi-0.dtd"
   xmlns:inkscape="http://www.inkscape.org/namespaces/inkscape"
   width="3in"
   height="1.2in"
   viewBox="0 0 76.200001 30.480002"
   version="1.1"
   id="svg5102"
   inkscape:version="1.0.1 (c497b03c, 2020-09-10)"
   sodipodi:docname="jaguar red logo.svg">
  <defs
     id="defs5096">
    <clipPath
       clipPathUnits="userSpaceOnUse"
       id="clipPath3581">
      <path
         d="M 0,907 H 1318 V 0 H 0 Z"
         id="path3579" />
    </clipPath>
  </defs>
  <sodipodi:namedview
     id="base"
     pagecolor="#ffffff"
     bordercolor="#666666"
     borderopacity="1.0"
     inkscape:pageopacity="0.0"
     inkscape:pageshadow="2"
     inkscape:zoom="1.979899"
     inkscape:cx="122.85714"
     inkscape:cy="102.85714"
     inkscape:document-units="mm"
     inkscape:current-layer="layer1"
     inkscape:document-rotation="0"
     showgrid="false"
     units="in"
     inkscape:window-width="1232"
     inkscape:window-height="755"
     inkscape:window-x="48"
     inkscape:window-y="23"
     inkscape:window-maximized="0" />
  <metadata
     id="metadata5099">
    <rdf:RDF>
      <cc:Work
         rdf:about="">
        <dc:format>image/svg+xml</dc:format>
        <dc:type
           rdf:resource="http://purl.org/dc/dcmitype/StillImage" />
        <dc:title></dc:title>
      </cc:Work>
    </rdf:RDF>
  </metadata>
  <g
     inkscape:label="Layer 1"
     inkscape:groupmode="layer"
     id="layer1">
    <g
       id="g3575"
       transform="matrix(0.36092712,0,0,-0.36092712,-283.77153,111.38821)"
       style="fill:#ee293d;fill-opacity:1">
      <g
         id="g3577"
         clip-path="url(#clipPath3581)"
         style="fill:#ee293d;fill-opacity:1">
        <g
           id="g3583"
           transform="translate(871.9097,290.8506)"
           style="fill:#ee293d;fill-opacity:1">
          <path
             d="M 0,0 C 1,-0.259 0.889,-1.852 2.111,-1.333 2.445,-1.259 2.853,-1.667 2.556,-2.074 2.371,-2.186 2.148,-2.296 1.926,-2.408 2.111,-2.778 2.519,-3.26 2.111,-3.667 1,-4.26 -0.296,-4.297 -1.519,-4.63 c -4.408,-1.667 -9.187,-5.038 -11.039,-9.706 -0.926,-3.112 -1.074,-7.112 0.815,-9.854 1.556,-1.593 3.371,-3.297 5.594,-3.667 1.963,-0.445 3.667,0.296 5.075,1.519 0,0.444 -0.889,0.667 -0.371,1.074 -1.037,1.26 0.112,2.63 -0.185,4.001 0.371,1.445 0.519,2.63 1.074,4 -0.815,0.075 -1.592,-0.481 -2.482,-0.518 0.371,0.185 0,0.667 -0.259,0.333 -1.667,-0.778 -3.445,-1.259 -5.001,-2.297 -0.222,0.037 -0.63,0.223 -0.333,0.519 1.63,0.482 1,2.667 2.852,2.779 0.259,1.111 1.593,1.259 2.556,1.481 -0.259,1.112 1,0.408 1.445,0.741 1.297,0.667 2.778,1 3.889,2.223 0.519,0.259 1.001,0.148 1.149,-0.445 0.037,-0.222 -0.037,-0.444 0.185,-0.555 0.593,0.074 1.037,1 1.593,0.555 C 5.001,-18.188 1.63,-23.301 3,-29.191 c -0.074,-0.556 0.112,-1.222 0.186,-1.852 -0.111,-0.185 -0.296,-0.185 -0.445,-0.259 -0.185,0.148 0,0.444 -0.185,0.63 -1.26,-0.667 -0.63,1.333 -1.667,1.148 -0.518,0.519 -0.778,1.296 -1.63,1.222 -1.037,-1.111 -1.741,-2.741 -3.371,-3 -2.185,-0.593 -4.742,-0.222 -6.742,0.963 -2.926,1.148 -5.001,3.853 -6.223,6.594 -1.26,5.075 -1.001,11.039 1.852,15.299 0.518,1.704 2.185,2.704 2.926,4.334 1.482,0.815 2.112,2.816 3.668,3.668 0.259,-0.037 0.63,0 0.63,0.333 1.889,1.074 4,1.556 6.223,1.889 C -1.333,0.593 0.556,1.556 0,0"
             style="fill:#ee293d;fill-opacity:1;fill-rule:nonzero;stroke:none"
             id="path3585" />
        </g>
        <g
           id="g3587"
           transform="translate(915.8071,285.5166)"
           style="fill:#ee293d;fill-opacity:1">
          <path
             d="m 0,0 c -1.926,-2.408 -4.038,-4.742 -5.223,-7.483 h 0.259 c 0.333,0.518 1.593,0.185 1.778,1.148 0.926,0.296 1.741,1.408 2.853,0.704 -0.371,0.778 0.704,1 0.074,1.519 -0.074,0.407 0.037,1 0.518,1.148 C 0.148,-2 0.852,-1.186 0.815,-0.186 0.778,-0.333 0.519,-0.667 0.259,-0.63 0.074,-0.482 -0.037,-0.296 0,0 m -25.672,9.039 c -0.593,-0.963 1.297,-1.445 0.259,-2.372 0.593,-0.407 1.223,-0.185 1.594,-1 -0.63,-1.814 -1.927,-3.371 -2.668,-5.148 -1.222,-0.815 -0.666,-2.372 -1.408,-3.372 -1.296,-1.852 -2.519,-3.741 -3.037,-5.89 -2.445,-3.222 -3.63,-7.001 -4.705,-10.817 -0.185,-0.555 -0.148,-1.333 0.445,-1.629 1.667,-0.223 2.815,1.74 4.075,2.407 0.481,0.778 1.518,1 1.889,1.89 1.815,1.666 4.593,3.445 4.779,6.038 0.815,0.704 0.074,2.037 1.074,2.667 0,0.963 0,2.186 0.889,2.556 -0.222,0.704 -0.408,1.482 0.185,2.074 -0.111,0.26 0.186,0.408 0.074,0.704 0.26,-0.148 0.556,0.223 0.815,0.334 0.964,0.666 -0.815,1.148 0.185,1.778 0.63,0.815 0.815,2.074 1.667,2.519 -0.296,0.518 0.593,0.778 0.556,1.333 0.741,1.038 1.111,2.334 2.223,3.186 0.445,-0.407 1.297,0.074 1.593,-0.704 0.741,0.371 1.37,0.408 2.111,0 0.26,-0.444 0.667,-0.926 0.445,-1.444 -0.111,-0.26 -0.408,-0.445 -0.333,-0.778 0.481,-0.26 1.185,-0.445 1.148,-1.149 V 1.667 c -3.742,-6.668 -6.631,-13.669 -9.076,-20.893 -0.037,-0.667 -0.334,-1.371 -0.074,-2.038 0.185,-0.444 0.63,-1 1.148,-1.074 0.149,-0.148 0.334,-0.408 0.519,-0.185 1.111,2.186 3.112,3.778 4.186,5.964 -0.741,-0.111 -1.593,-0.482 -2.408,-0.704 -0.111,0.593 0.704,0.926 0.741,1.593 0.148,0.519 -0.778,0.444 -0.297,0.889 0.779,0.445 1.853,0.63 2.223,1.445 0.741,0.593 1.89,0.519 2.223,1.593 1.889,0.407 1.741,2.445 2.964,3.556 0.185,1.148 1.407,1.778 1.852,2.741 0.148,-0.111 0.333,-0.074 0.444,0.112 -0.296,1.37 2.112,1.333 1.852,2.926 1.075,0.333 0.926,1.482 1.778,2.037 0.63,0.852 1.26,1.778 2.223,2.408 -0.111,0.222 0.223,0.259 0.186,0.444 1.259,1.26 3.371,2.038 3.222,4.001 0.037,0.519 0.074,1.334 0.704,1.667 0.63,0 1.222,-0.296 1.667,-0.518 C 4.297,7.334 4.149,6.779 4.63,6.816 5.927,6.482 6.816,6.816 8.001,6.223 8.187,6.075 8.001,5.816 8.187,5.667 5.668,-4.705 6.223,-16.708 4.63,-27.487 c 0.223,-1.519 -0.37,-3.149 -0.185,-4.519 -0.259,-0.186 -0.222,-0.63 -0.518,-0.445 0.074,0.222 -0.149,0.37 -0.26,0.518 0,0.519 0.148,1.334 -0.296,1.779 -0.074,-0.149 -0.259,-0.185 -0.445,-0.185 -0.259,0.185 -0.148,0.518 -0.444,0.703 0.852,0.26 0.63,1.186 0.556,1.779 -0.556,0.037 -0.445,0.666 -0.704,1 0.148,0.222 0.889,0.185 0.592,0.778 -0.185,0.481 -0.37,-0.223 -0.703,0 -0.185,0.407 -0.408,0.851 -0.26,1.259 -0.518,0.741 0.075,2.001 -0.63,2.593 0,0.445 0.408,1 0,1.408 -0.444,-0.223 -0.222,-1.037 -0.518,-1.26 -0.148,1.519 -0.926,3.26 0,4.631 -0.148,0.74 -0.815,1.556 -0.444,2.482 -0.149,1.63 0.333,3.482 0.185,5.075 -0.889,0.148 -1.593,-0.667 -2.519,-0.704 -0.223,-0.518 -0.89,-0.481 -1.334,-0.704 -1.297,-0.296 -1.889,-1.778 -3.26,-1.889 -0.222,-0.222 -0.556,-0.222 -0.815,-0.333 0,0.074 0.037,0.222 -0.074,0.259 -0.333,-0.445 -1.297,-0.074 -1,-0.889 -0.445,0 -0.741,-0.482 -0.963,-0.815 -1.779,-3.334 -3.445,-6.705 -5.52,-9.928 -0.333,-0.926 -1.074,-1.704 -1.334,-2.667 -0.148,-0.185 -0.481,-0.074 -0.518,0.074 -0.334,0.445 -0.741,-0.296 -0.815,-0.518 -0.852,-1.705 -1.741,-3.557 -3.112,-4.891 -0.148,-0.074 -0.259,0.075 -0.37,0.148 0.037,0.408 0.296,0.779 0.296,1.075 -0.667,-0.556 -1.074,-1.223 -1.519,-1.852 -0.852,-0.223 -0.222,0.741 -0.555,1.074 -0.815,-0.815 -1.075,-2.408 -2.482,-2.408 -0.075,0.408 0.111,0.926 0.185,1.408 -0.297,0.296 -0.63,-0.371 -0.889,0.111 0.185,0.741 1.074,1.371 1.259,2.223 0.779,0.296 0.556,1.444 1.334,1.852 -0.148,0.666 0.519,0.778 0.519,1.333 0.778,0.741 0.741,1.853 1.593,2.594 -1.816,-0.26 -4.668,-2.149 -5.965,0.333 0.26,0.519 0.037,1.148 -0.444,1.444 0.259,1.557 -0.074,2.668 0.556,4.076 -0.075,0.74 0.852,1.037 0.444,1.703 -1.889,-2.074 -4.001,-4.185 -6.15,-6.075 -1.592,-0.778 -3.407,-1.074 -5.074,-0.148 -0.63,0.371 -0.593,1.037 -1.038,1.482 -0.666,2.963 -0.555,6.001 0.704,8.631 0.704,1.482 0.37,3.408 1.408,4.705 0.481,3.038 2.111,5.593 3.223,8.372 0.667,1.593 1.148,3.296 2.297,4.704 0.555,1.741 1.222,3.668 2.852,4.705 0.259,0.148 0.555,0.593 0.889,0.297 0.667,-0.186 0.815,1.074 1.593,0.592 0.148,-0.111 0.296,-0.259 0.37,-0.444"
             style="fill:#ee293d;fill-opacity:1;fill-rule:nonzero;stroke:none"
             id="path3589" />
        </g>
        <g
           id="g3591"
           transform="translate(851.98,298.9263)"
           style="fill:#ee293d;fill-opacity:1">
          <path
             d="m 0,0 c -0.148,-0.296 -0.556,-0.296 -0.815,-0.519 -2.408,-0.37 -4.927,-0.518 -7.261,-1.074 -0.37,-0.963 0.667,-0.926 1.222,-0.889 0.186,-0.259 0.52,0.074 0.557,0 0,-1.111 -1.779,-0.667 -1.445,-1.963 -0.926,-0.852 -2.334,-0.519 -3.298,-1.334 0.075,-0.074 0.149,-0.111 0.186,-0.185 -1.593,-0.63 -3.26,-1.408 -4.964,-1.593 0.259,-0.63 -0.704,-1.148 -1,-1.519 -1.075,0.075 -1.852,-0.481 -2.742,-0.889 -1.074,-6.668 -3.371,-12.854 -5.26,-19.189 -2,-3.778 -3.075,-7.927 -6.297,-11.224 -3.297,-4.334 -8.002,-9.372 -14.04,-7.557 -3.556,1.481 -8.113,2.778 -9.594,6.964 -0.038,0.37 0.296,0.519 0.592,0.593 0.26,0.111 0.185,-0.148 0.297,-0.259 0.444,-0.259 0.963,-0.445 1.037,-1.075 2.26,-1.333 4.186,-3.445 7.113,-3.111 5.519,0.592 9.038,6.26 11.668,10.52 3.594,7.224 5.52,15.188 7.298,23.19 -0.074,0.074 -0.148,0.111 -0.185,0.185 -4.594,-0.407 -9.039,-1.407 -13.595,-1.519 -0.26,0.371 -0.334,0.778 -0.556,1.149 -0.481,0.185 -1.148,-0.408 -1.334,0.185 0.259,0.074 -0.037,0.185 -0.074,0.259 0.556,-0.037 0.963,0.371 1.222,0.815 0.149,0.556 -0.518,0.63 -0.777,0.963 -0.371,0.075 -0.704,0.148 -0.815,0.556 0,0.37 0,0.741 0.37,0.963 0.519,0.333 1.964,-0.37 1.667,0.63 -0.333,0.037 -1.185,-0.185 -1.222,0.518 0.037,0.556 0.111,1.075 0.777,1.001 4.742,-0.408 8.854,0.963 13.522,1.222 6.705,0.926 13.077,2.853 19.67,3.742 2.223,0.37 4.446,0.703 6.668,1.074 C -0.852,0.63 -0.111,0.704 0,0"
             style="fill:#ee293d;fill-opacity:1;fill-rule:nonzero;stroke:none"
             id="path3593" />
        </g>
        <g
           id="g3595"
           transform="translate(845.9419,285.146)"
           style="fill:#ee293d;fill-opacity:1">
          <path
             d="m 0,0 c -0.074,-0.148 -0.259,-0.259 -0.259,-0.445 -0.223,-0.259 -0.667,-1.259 -1.001,-0.37 -1.852,-2.963 -3.408,-6.039 -4.964,-9.15 -0.111,-0.222 -0.111,-0.482 0,-0.704 0.89,-0.185 0.778,0.519 1.075,0.963 0.518,0.297 1.111,0.63 1.778,0.371 0.741,1.111 2.111,1.444 3.26,1.963 C -0.186,-4.853 0.111,-2.519 0,0 M 5.779,8.076 C 6.186,7.297 5.149,5.408 6.667,5.52 7.446,4.149 6.705,2.519 6.742,0.963 c -0.815,-8.446 -1,-17.522 -0.889,-26.042 -0.186,-0.37 0.148,-1.556 -0.704,-1.074 -0.408,0.407 -0.445,1.222 -0.963,1.333 -0.63,-1.074 -0.297,-2.445 -0.63,-3.445 -0.704,0.26 -0.741,0.963 -0.815,1.593 0.704,1.186 -1.111,1.778 -0.63,3.112 -0.518,-0.296 0,-1.371 -0.444,-1.853 -0.519,-0.148 -0.593,0.519 -0.889,0.89 0.074,0.815 -0.889,1.704 -0.149,2.296 0.519,1.334 -0.888,2.149 -0.37,3.372 -0.074,2.407 -0.185,5.26 -0.259,7.556 l -0.186,0.186 c -2.222,-0.927 -4.63,-1.741 -6.853,-2.408 -0.481,-0.223 -0.889,-0.741 -1.519,-0.704 -2.37,-4.408 -4.149,-9.076 -6.297,-13.595 0.111,-1.223 -1.519,-1.482 -1.259,-2.779 -0.297,-0.555 -0.445,-1.259 -0.889,-1.667 -0.371,0.704 0.815,1.63 0,2.297 0.296,0.741 0.592,1.593 0.444,2.408 -1.111,-1.556 -1.741,-3.408 -2.556,-5.149 -0.37,-0.111 -0.445,0.481 -0.26,0.704 0.223,0.444 0.63,1.074 0.334,1.519 h -0.185 c -0.704,-1.038 -0.852,-2.519 -2.038,-3.112 0.297,0.963 -0.148,1.408 -0.074,2.296 0,1.075 1.038,1.482 0.963,2.408 0.408,0.223 -0.111,0.89 0.556,0.89 -0.037,0.481 1.149,0.815 0.519,1.259 0.481,1.408 1.37,2.704 1.963,4.001 0.519,0.444 0.334,1.185 0.963,1.593 0.482,1.259 1.112,2.593 2.038,3.741 -0.408,0.667 0.777,0.704 0.37,1.408 0.148,0.407 0.519,0.741 0.63,1.148 -0.333,0.26 -1.482,-0.185 -1.334,0.704 0.186,0.259 -0.296,0.259 -0.444,0.371 0.518,0.518 1.407,0.815 2.111,0.815 0.149,0.407 0.667,0.296 1.001,0.444 0.37,0.926 1.518,1.704 1.148,2.815 0.592,0.408 1.148,1 1.148,1.63 0,1.445 1.704,2.593 1.89,3.89 0.815,0.593 0.962,1.704 1.481,2.408 0.741,0.148 0.037,0.852 0.815,0.889 0.889,1.63 1.074,3.63 2.667,4.889 0.593,0.853 0.927,1.779 1.149,2.742 0.407,0.222 0.629,0 1.074,0.111 0.334,-0.333 0,-1.259 0.815,-1.074 0.259,0.555 0.037,1.852 1.148,1.852 0.889,0.037 1.927,-0.482 2.482,0.37 0.519,0.297 1.408,0.593 1.964,0.075"
             style="fill:#ee293d;fill-opacity:1;fill-rule:nonzero;stroke:none"
             id="path3597" />
        </g>
        <g
           id="g3599"
           transform="translate(949.7764,293.8516)"
           style="fill:#ee293d;fill-opacity:1">
          <path
             d="m 0,0 c 1.927,0.037 3.631,-1.593 5.334,-2.667 2.038,-1.742 3.038,-3.927 2.927,-6.557 -0.222,-5.001 -5.371,-8.854 -9.409,-10.854 0.333,-0.556 1.037,-1.037 1.593,-1.445 1.778,-1.741 3,-4.149 5.075,-5.779 0.592,-1.26 2.148,-1.333 3.111,-2.371 1.445,-2.556 4.261,-3.297 5.853,-5.63 1.927,-1.667 3.853,-3.705 5.965,-5.15 0.926,-1.704 2.852,-1.333 3.63,-3.185 0.519,-0.186 0.889,-0.741 1.074,-1.149 -1.185,-1.074 -2.037,1.149 -3.111,1.593 -0.815,0.519 -1.445,1.259 -2.297,1.852 -3.89,3.038 -7.261,6.15 -11.299,8.817 -1.259,0.629 -2.111,2.074 -3.037,3.186 -2.223,0.63 -2.889,3.037 -4.705,4.26 -0.296,0.556 -0.778,1.111 -1.223,1.518 -0.037,-0.629 -0.74,-0.407 -1,-0.073 -0.667,0.852 -1.814,1.185 -2.556,1.852 0.297,0.926 -0.778,0.333 -1.074,0.63 -0.444,0.555 -1,1.185 -1.593,1.518 -0.445,-0.222 0,-0.481 0.075,-0.703 1.407,-1.001 1.814,-3.112 3.556,-3.483 1.667,-1.852 3.519,-3.297 5.334,-4.815 -0.148,-0.186 -0.556,-0.112 -0.815,-0.26 3.519,-1.704 6.223,-5.371 9.632,-7.372 1.296,-1.222 2.629,-2.371 3.704,-3.556 0.074,-0.111 -0.148,-0.148 -0.074,-0.259 4.556,-3.075 8.186,-8.001 13.077,-10.595 0.148,-0.37 -0.26,-0.407 -0.445,-0.259 -5.26,3.334 -9.78,7.927 -15.114,11.113 -4.445,3.297 -7.409,8.039 -12.373,10.484 -0.148,0.852 -1.037,0.815 -1.593,1.148 -0.555,0.815 -1.741,1.519 -1.778,2.593 -0.778,0.852 -2.223,1.223 -2.593,2.482 -0.704,0.37 -1.333,1.074 -2.223,0.815 -0.629,0.407 -0.926,1.408 -1.778,1.519 -0.148,0.333 -0.63,0.296 -0.593,0.704 0.778,0.111 0.519,1.111 1.334,1.222 0.667,-0.37 1.408,-0.333 2.112,-0.074 0.592,1.149 -1.075,1.445 -1.519,2.297 -0.333,0.482 0.296,0.963 0.37,1.185 1.223,0.037 1.926,-2.407 3.297,-1.445 0.334,0 0.482,-0.407 0.889,-0.259 0.889,1.482 2.074,2.853 3.186,4.26 0.37,0.89 1.148,1.742 0.704,2.853 -1.593,2.037 -4.445,2.408 -7.002,1.963 -0.666,-0.592 -2,-0.222 -2.148,-1.334 -0.111,-0.963 -0.741,-1.667 -1.148,-2.482 -0.223,0.038 -0.26,0.223 -0.26,0.445 0.185,0.111 -0.148,0.297 -0.259,0.334 -1.148,-1.408 -1.297,-3.408 -2.075,-5.075 -0.259,0 -0.148,0.37 -0.444,0.37 -2.001,-6.038 -3.149,-12.373 -4.52,-18.67 -0.148,-0.445 -0.444,-0.63 -0.815,-0.889 -0.555,0.407 0.445,1.407 -0.518,1.704 -1.186,-2.705 -2.26,-5.446 -3.483,-8.113 -0.37,0.556 0.038,1.074 -0.333,1.593 -0.518,0.111 -0.778,-0.111 -0.889,-0.519 -0.518,-1.148 -0.37,-2.741 -1.333,-3.556 0.037,0.259 0.296,1.037 0,1.408 -0.482,-0.334 -0.445,-1.482 -1.074,-1.149 0,0.778 -0.815,1.667 0,2.334 -1.075,1.482 0.703,3.297 1.259,4.89 0.333,0.259 1.037,0.445 0.444,0.963 0.371,0.407 -0.222,1.593 0.593,1.519 0.482,0.333 0.037,0.555 -0.259,0.703 0.63,1.371 0.889,2.89 1.519,4.261 0.63,0.222 1.111,0.74 1.148,1.444 -0.481,0.075 -0.37,0.667 -0.26,0.963 1.186,3.298 1.853,6.817 3.372,9.965 0.185,0.704 0.296,1.667 0.889,2.297 0.222,1.223 0.926,2.186 1.148,3.371 -1.556,-0.296 -3.075,-2.334 -4.89,-1.333 0.038,1.852 -2.371,-0.297 -2.296,1.519 -0.149,1.111 -1.482,0.111 -1.779,1.148 0,0.741 0.408,1.111 0.26,1.778 0.667,-0.334 1.074,0.481 1.704,0.444 0.704,0.556 0.37,1.556 0.963,2.149 1.519,0.37 2.815,1.482 4.26,1.704 0.185,0.26 0.333,0.63 0.741,0.593 0.741,-0.037 1.482,0.444 2.223,0.63 0,-0.038 0.037,-0.038 0.073,-0.075 0.742,0.482 1.779,0.445 2.409,1.075 1.518,0.148 2.963,1.037 4.445,0.778 1,0.185 2.408,-0.074 3.185,0.889 0.779,0.556 1.705,-0.371 2.483,0.444 C -2.186,-0.111 -0.852,0.815 0,0"
             style="fill:#ee293d;fill-opacity:1;fill-rule:nonzero;stroke:none"
             id="path3601" />
        </g>
        <g
           id="g3603"
           transform="translate(940.8862,271.3657)"
           style="fill:#ee293d;fill-opacity:1">
          <path
             d="M 0,0 C 0.407,-0.26 0.815,-0.593 1.333,-0.63 3,-3.186 5.927,-4.89 7.557,-7.557 c 0.815,-0.741 2.259,-0.964 2.482,-2.223 1.667,-1.37 3.741,-2.741 4.704,-4.631 1.149,-0.592 2.186,-1.333 3.408,-1.667 3.371,-2.667 5.928,-5.519 9.039,-8.445 2.001,-2.297 4.705,-2.816 6.853,-4.631 1.482,-1.408 3.446,-2.815 4.557,-4.445 -0.074,-0.149 -0.408,-0.149 -0.556,0 -4.63,4 -9.705,7.075 -14.299,11.187 -0.666,-0.074 -1.26,0.445 -1.778,0.889 -3.038,1.556 -4.964,5.482 -8.372,6.335 -1.037,1.852 -2.927,2.963 -4.705,4 -1.407,0.556 -1.556,2.371 -2.926,2.742 -0.407,0.518 -1.149,0.555 -1.334,1.259 -1.333,1.482 -2.667,3.149 -4.371,4.075 -0.518,0.519 -0.778,1.112 -1.148,1.704 -0.593,0.111 -1.63,-0.333 -2.038,0.519 -0.593,0 -1.259,-0.111 -1.593,0.444 0.075,0.63 0.667,0.964 0,1.519 0.704,1.852 2.26,-0.148 3.445,0 C -0.593,0.852 -0.223,0.481 0,0"
             style="fill:#ee293d;fill-opacity:1;fill-rule:nonzero;stroke:none"
             id="path3605" />
        </g>
        <g
           id="g3607"
           transform="translate(942.2939,266.5498)"
           style="fill:#ee293d;fill-opacity:1">
          <path
             d="m 0,0 c 0.741,-0.63 1.37,-1.333 1.333,-2.297 1.297,-2.26 3.482,-3.852 5.334,-5.519 0.593,-1.075 1.297,-2.112 2.075,-3.112 1.556,0.667 2.482,-1.112 3.446,-2.038 -0.186,-1.148 1.296,-1.37 1.962,-2.037 0.557,0.222 0.89,-0.333 0.964,-0.815 1.259,-0.518 1.815,-2.148 3.222,-2.297 0.556,-1.111 2.149,-0.63 2.223,-1.963 1.186,-0.926 2.519,-1.63 3.63,-2.482 -0.11,-0.741 1.075,-0.334 1.001,-1.148 0.556,-0.408 1.111,-1.186 1.926,-1.075 0.148,-1.074 1.334,-1.074 1.964,-1.592 3.37,-2.853 7.186,-5.409 10.409,-8.373 -0.482,0 -0.889,0.297 -1.334,0.445 -8.779,6.89 -18.077,12.966 -26.745,20.263 -0.482,0.259 -0.519,0.815 -0.742,1.26 -3,0.407 -4.593,3.667 -7.112,5.334 -0.926,2.519 -4.408,3.075 -4.704,5.853 -0.927,0.852 -2.557,0.519 -3.001,1.963 -0.26,0.111 -0.26,0.482 -0.371,0.704 -0.519,0.519 -2.037,0.371 -1.592,1.445 1.37,0.704 2.481,-0.852 3.815,-1.074 C -1.667,0.815 -0.741,0.481 0,0"
             style="fill:#ee293d;fill-opacity:1;fill-rule:nonzero;stroke:none"
             id="path3609" />
        </g>
        <g
           id="g3611"
           transform="translate(931.0322,257.6592)"
           style="fill:#ee293d;fill-opacity:1">
          <path
             d="m 0,0 c -0.185,-1.519 -0.852,-2.89 -1.704,-4.149 -0.37,0.074 -0.333,0.667 -0.815,0.778 0.037,0.185 0.259,0.296 0.371,0.444 0.185,0 0.333,0.037 0.444,0.186 0.556,1 -0.111,2.704 1.26,3.112 C -0.296,0.296 -0.148,0.148 0,0"
             style="fill:#ee293d;fill-opacity:1;fill-rule:nonzero;stroke:none"
             id="path3613" />
        </g>
        <g
           id="g3615"
           transform="translate(976.5225,248.0645)"
           style="fill:#ee293d;fill-opacity:1">
          <path
             d="M 0,0 C 0.445,-0.185 0.778,-0.667 1.334,-0.629 2.445,-1.185 2.964,-2.519 4.112,-3 3.371,-3.889 2.593,-2.371 1.704,-2.296 0.889,-1.111 -0.815,-0.926 -1.148,0.445 -0.704,0.852 -0.259,0.482 0,0"
             style="fill:#ee293d;fill-opacity:1;fill-rule:nonzero;stroke:none"
             id="path3617" />
        </g>
        <g
           id="g3619"
           transform="translate(983.1904,243.4341)"
           style="fill:#ee293d;fill-opacity:1">
          <path
             d="m 0,0 c 1.741,-1.148 3.667,-1.889 5.26,-3.186 -2.148,0.26 -4,1.815 -5.964,2.853 -0.555,0.148 -1.111,0.407 -1.407,0.963 0.037,0.259 -0.149,0.592 0.185,0.703 C -1.148,1.222 -0.704,0.296 0,0"
             style="fill:#ee293d;fill-opacity:1;fill-rule:nonzero;stroke:none"
             id="path3621" />
        </g>
        <g
           id="g3623"
           transform="translate(983.6353,239.3594)"
           style="fill:#ee293d;fill-opacity:1">
          <path
             d="M 0,0 C -0.223,-0.371 -0.63,-0.074 -0.889,0 -2.26,0.629 -3.52,1.556 -4.779,2.482 -5.038,2.741 -4.742,3.075 -4.445,2.926 -2.853,2.186 -1.445,0.889 0,0"
             style="fill:#ee293d;fill-opacity:1;fill-rule:nonzero;stroke:none"
             id="path3625" />
        </g>
        <g
           id="g3627"
           transform="translate(982.042,236.0625)"
           style="fill:#ee293d;fill-opacity:1">
          <path
             d="M 0,0 C -0.592,-0.259 -1.259,0.37 -1.778,0.815 -1.296,1.741 -0.667,0.222 0,0.185 Z"
             style="fill:#ee293d;fill-opacity:1;fill-rule:nonzero;stroke:none"
             id="path3629" />
        </g>
      </g>
    </g>
  </g>
</svg>
