<?xml version="1.0" encoding="UTF-8" standalone="no"?>
<svg
   xmlns:dc="http://purl.org/dc/elements/1.1/"
   xmlns:cc="http://creativecommons.org/ns#"
   xmlns:rdf="http://www.w3.org/1999/02/22-rdf-syntax-ns#"
   xmlns:svg="http://www.w3.org/2000/svg"
   xmlns="http://www.w3.org/2000/svg"
   xmlns:sodipodi="http://sodipodi.sourceforge.net/DTD/sodipodi-0.dtd"
   xmlns:inkscape="http://www.inkscape.org/namespaces/inkscape"
   version="1.1"
   id="svg20146"
   width="855"
   height="641"
   viewBox="0 0 855 641"
   sodipodi:docname="jaguar_cd.svg"
   inkscape:version="1.0.1 (c497b03c, 2020-09-10)">
  <metadata
     id="metadata20152">
    <rdf:RDF>
      <cc:Work
         rdf:about="">
        <dc:format>image/svg+xml</dc:format>
        <dc:type
           rdf:resource="http://purl.org/dc/dcmitype/StillImage" />
      </cc:Work>
    </rdf:RDF>
  </metadata>
  <defs
     id="defs20150" />
  <sodipodi:namedview
     pagecolor="#ffffff"
     bordercolor="#666666"
     borderopacity="1"
     objecttolerance="10"
     gridtolerance="10"
     guidetolerance="10"
     inkscape:pageopacity="0"
     inkscape:pageshadow="2"
     inkscape:window-width="1671"
     inkscape:window-height="971"
     id="namedview20148"
     showgrid="false"
     inkscape:zoom="1.9690903"
     inkscape:cx="389.01435"
     inkscape:cy="153.27955"
     inkscape:window-x="467"
     inkscape:window-y="170"
     inkscape:window-maximized="0"
     inkscape:current-layer="layer4"
     inkscape:document-rotation="0" />
  <g
     inkscape:groupmode="layer"
     id="layer4"
     inkscape:label="Jag"
     style="display:inline;opacity:1">
    <path
       style="display:inline;fill:#4d4d4d;stroke:#000000;stroke-width:1px;stroke-linecap:butt;stroke-linejoin:miter;stroke-opacity:1"
       d="m 632.08166,554.50673 c 0,0 51.97936,-11.91393 65.18733,-16.24779 16.8907,-5.54227 51.33188,-18.60617 51.46383,-19.52988 0.13196,-0.92371 -58.72155,-7.78555 -58.72155,-7.78555 l -60.70094,18.87007 z"
       id="path20347"
       sodipodi:nodetypes="cssccc" />
    <path
       style="fill:#4d4d4d;stroke:#000000;stroke-width:1px;stroke-linecap:butt;stroke-linejoin:miter;stroke-opacity:1"
       d="m 709.0133,509.75588 -3.43092,23.8845 c 0,0 56.74217,-17.28657 82.07821,-29.82263 25.33604,-12.53607 25.75718,-14.84736 27.97522,-18.21028 2.42503,-3.67676 5.4103,-12.79998 5.67422,-16.2309 0.26391,-3.43092 -112.29673,40.37931 -112.29673,40.37931"
       id="path20345"
       sodipodi:nodetypes="ccsssc" />
    <path
       style="fill:#333333;stroke:#000000;stroke-width:1px;stroke-linecap:butt;stroke-linejoin:miter;stroke-opacity:1"
       d="m 712.41991,484.50496 -3.40661,25.25092 -12.73267,-18.07297 7.20415,-34.5799 11.99449,10.5581 z"
       id="path20341" />
    <path
       style="fill:#4d4d4d;stroke:#000000;stroke-width:1px;stroke-linecap:butt;stroke-linejoin:miter;stroke-opacity:1"
       d="m 829.49146,432.82405 c -0.13196,6.46597 -3.16701,28.10717 -6.72989,34.96902 -3.56288,6.86184 -99.89263,43.41436 -113.74827,41.96281 3.40661,-25.25092 3.40661,-25.25092 3.40661,-25.25092 z"
       id="path20339"
       sodipodi:nodetypes="csccc" />
    <path
       style="fill:#4d4d4d;stroke:#000000;stroke-width:1px;stroke-linecap:butt;stroke-linejoin:miter;stroke-opacity:1"
       d="m 696.28063,491.68291 -53.24661,11.07917 -5.35128,34.94141 c 0,0 57.07903,-10.79299 61.9615,-12.77237 4.88247,-1.97938 -3.36361,-33.24821 -3.36361,-33.24821 z"
       id="path20337" />
    <path
       style="fill:#1a1a1a;stroke:#000000;stroke-width:1px;stroke-linecap:butt;stroke-linejoin:miter;stroke-opacity:1"
       d="m 626.48058,547.78544 5.60108,6.72129 1.68032,-20.44394 3.92076,3.6407 5.35128,-34.94141 -12.35263,-0.62543 z"
       id="path20335" />
    <path
       style="fill:#333333;stroke:#000000;stroke-width:1px;stroke-linecap:butt;stroke-linejoin:miter;stroke-opacity:1"
       d="m 219.53226,541.02656 c 0,0 125.48639,13.58926 196.62784,13.20012 119.59944,-0.6542 210.32048,-6.44124 210.32048,-6.44124 l 4.20081,-45.64879 -416.91737,-5.38978 5.76824,44.27969"
       id="path20333"
       sodipodi:nodetypes="cscccc" />
    <path
       style="display:inline;fill:#1a1a1a;stroke:#000000;stroke-width:1px;stroke-linecap:butt;stroke-linejoin:miter;stroke-opacity:1"
       d="m 212.91575,545.77687 6.61651,-4.75031 -5.76824,-44.27969 -10.85785,-2.20551 5.25927,36.1363 3.22342,-3.39308 z"
       id="path20308" />
    <path
       style="display:inline;fill:#4d4d4d;stroke:#000000;stroke-width:1px;stroke-linecap:butt;stroke-linejoin:miter;stroke-opacity:1"
       d="m 208.16544,530.67766 -5.25927,-36.1363 -54.9679,-14.42058 -3.22342,37.83283 63.45059,12.72405"
       id="path20306" />
    <path
       style="display:inline;fill:#4d4d4d;stroke:#000000;stroke-width:1px;stroke-linecap:butt;stroke-linejoin:miter;stroke-opacity:1"
       d="m 48.012078,486.22832 c 0,0 66.899202,32.24726 84.318032,38.51145 53.78031,19.34056 80.58564,21.0371 80.58564,21.0371 l -1.52689,-18.49229 -3.22342,3.39308 c 0,0 -61.07544,-14.08128 -65.48644,-16.9654 -4.411,-2.88411 -94.666922,-27.48394 -94.666922,-27.48394 z"
       id="path20304"
       sodipodi:nodetypes="cscccsc" />
    <path
       style="display:inline;fill:#4d4d4d;stroke:#000000;stroke-width:1px;stroke-linecap:butt;stroke-linejoin:miter;stroke-opacity:1"
       d="m 27.25935,455.23114 c 1.754838,8.15645 4.004185,18.81008 8.916079,22.77292 16.29882,13.11856 104.380591,47.70386 104.380591,47.70386 l -2.65228,-22.91423 z"
       id="path20300"
       sodipodi:nodetypes="ccccc" />
    <path
       style="fill:#4d4d4d;stroke:#000000;stroke-width:1px;stroke-linecap:butt;stroke-linejoin:miter;stroke-opacity:1"
       d="m 137.90374,502.79369 c 0,0 -100.061492,-29.54871 -112.689232,-50.01317 l -5.763316,-32.05845 118.868398,46.46674 -0.41585,35.60488"
       id="path20298"
       sodipodi:nodetypes="ccccc" />
    <path
       style="fill:#333333;stroke:#000000;stroke-width:1px;stroke-linecap:butt;stroke-linejoin:miter;stroke-opacity:1"
       d="m 150.92684,484.11856 -13.0231,18.67513 -3.35501,-28.08049 11.33521,-38.86242 5.0429,48.26778"
       id="path20296"
       sodipodi:nodetypes="ccccc" />
    <path
       style="fill:#1a1a1a;stroke:#000000;stroke-width:1px;stroke-linecap:butt;stroke-linejoin:miter;stroke-opacity:1"
       d="m 296.00089,508.05309 2.18048,26.9835 80.67796,1.63537 2.18049,-22.07741 -39.5213,-8.44939 z"
       id="path20358"
       sodipodi:nodetypes="cccccc" />
    <path
       style="fill:#999999;stroke:#000000;stroke-width:1px;stroke-linecap:butt;stroke-linejoin:miter;stroke-opacity:1"
       d="m 301.72466,508.59821 2.18049,16.89876 c 44.9679,3.66036 76.04442,2.18049 76.04442,2.18049 l 1.09025,-16.89876 z"
       id="path20360"
       sodipodi:nodetypes="ccccc" />
    <path
       style="display:inline;fill:#000000;stroke:#000000;stroke-width:1px;stroke-linecap:butt;stroke-linejoin:miter;stroke-opacity:1"
       d="m 306.7444,506.43986 5.99634,20.14736 48.0612,1.47645 3.88424,-14.83193 z"
       id="path20362"
       sodipodi:nodetypes="ccccc" />
    <path
       style="fill:#1a1a1a;stroke:#000000;stroke-width:1px;stroke-linecap:butt;stroke-linejoin:miter;stroke-opacity:1"
       d="m 549.75487,513.5043 -3.54329,25.62071 -81.49564,-1.09025 0.81769,-21.80485 z"
       id="path20365" />
    <path
       style="fill:#b3b3b3;stroke:#000000;stroke-width:1px;stroke-linecap:butt;stroke-linejoin:miter;stroke-opacity:1"
       d="m 465.53363,516.22991 -0.27257,12.81035 h 77.95236 l 2.45304,-15.53596 z"
       id="path20367" />
    <path
       style="fill:#000000;stroke:#000000;stroke-width:1px;stroke-linecap:butt;stroke-linejoin:miter;stroke-opacity:1"
       d="m 478.8891,516.50247 1.3628,12.81035 50.42373,0.27256 5.72377,-16.89876 z"
       id="path20369" />
    <path
       style="fill:#4d4d4d;stroke:#000000;stroke-width:1px;stroke-linecap:butt;stroke-linejoin:miter;stroke-opacity:1"
       d="m 145.88394,450.61928 5.0429,33.49928 c 0,0 125.35957,31.45296 282.7627,32.41865 188.0999,1.15402 262.59109,-24.8543 262.59109,-24.8543 l 7.20415,-34.5799 z"
       id="path20293"
       sodipodi:nodetypes="ccsccc" />
    <path
       style="display:inline;opacity:1;fill:#666666;stroke:#000000;stroke-width:1px;stroke-linecap:butt;stroke-linejoin:miter;stroke-opacity:1"
       d="m 309.31884,193.13839 c 0,0 -34.9209,38.76792 -51.27182,61.27882 -7.7007,13.83674 -7.36383,24.92826 0.98995,34.64825 5.79833,6.74662 57.39302,42.70216 166.31164,40.58796 54.11634,-1.72008 193.27496,-8.243 178.23894,-70.97963 -2.0761,-8.66235 -51.49803,-60.88818 -51.49803,-60.88818 v 22.67842 c 0,0 -74.44753,-4.67785 -117.16772,-5.25089 -41.82966,-0.56109 -123.41062,1.90489 -124.67352,1.90489 z"
       id="path20371"
       sodipodi:nodetypes="ccscsccscc" />
    <path
       style="display:inline;fill:#666666;stroke:#000000;stroke-width:1px;stroke-linecap:butt;stroke-linejoin:miter;stroke-opacity:1"
       d="m 145.88394,450.61928 c 0,0 138.68201,37.22118 289.24643,37.82177 172.17878,0.6868 268.35441,-31.33804 268.35441,-31.33804 l -45.74633,-127.51337 -530.9455,-0.72041 z"
       id="path20291"
       sodipodi:nodetypes="cscccc" />
    <path
       style="fill:#333333;stroke:#000000;stroke-width:1px;stroke-linecap:butt;stroke-linejoin:miter;stroke-opacity:1"
       d="m 310.24828,217.11803 -54.84113,70.6275 -15.50922,-40.25798 69.42043,-54.34888 z"
       id="path20405" />
    <path
       style="fill:#333333;stroke:#000000;stroke-width:1px;stroke-linecap:butt;stroke-linejoin:miter;stroke-opacity:1"
       d="m 552.08952,220.46403 54.08999,61.01181 2.96985,-29.03854 -57.05952,-54.65214 z"
       id="path20407" />
    <path
       id="path20289"
       style="fill:#666666;stroke:#000000;stroke-width:1;stroke-linecap:butt;stroke-linejoin:miter;stroke-miterlimit:4;stroke-dasharray:none;stroke-opacity:1"
       d="m 309.31836,193.13867 -10.78125,2.41602 -0.37109,2.60351 h -4.08985 l -1.11523,2.97266 -10.0625,0.59766 -5.10742,3.33984 -10.75,0.54297 -3.98047,4.99805 -5.01563,-0.043 -6.07422,6.08398 -6.0957,0.58984 -6.51367,7.59571 -8.22461,1.12695 -4.21484,6.00781 -6.17188,0.81446 -5.38086,6.00976 -6.42969,0.44336 -6.8789,7.98828 -5.94336,0.50782 L 30.253906,401.1582 c 0,0 -19.671782,17.49472 -6.08789,28.30078 27.887903,22.18498 87.044004,43.95828 110.382814,45.25391 2.60488,-4.73426 23.00677,-62.21328 71.23047,-83.04492 61.67893,-21.3408 145.96816,-31.42873 218.79101,-31.60156 78.05812,-0.18525 201.22109,26.81131 221.02149,39.03711 47.74407,29.47968 64.14238,64.34781 66.82812,85.40234 22.30664,-0.18588 112.46191,-35.72093 116.08594,-47.85352 4.27545,-14.3131 -13.0129,-29.37021 -21.93555,-39.4082 -8.92266,-10.03799 -143.6875,-145.34961 -143.6875,-145.34961 l -3.20312,-0.37109 -6.87891,-7.27735 -3.85156,-0.22656 -5.96094,-4.4082 -3.90234,0.37109 -5.01953,-6.50586 -6.13477,0.18555 -5.01758,-6.69141 -5.94922,-0.18554 -3.90429,-4.83399 -5.39063,0.5586 -4.27539,-4.83399 -6.87695,0.74414 -3.3457,-5.01953 -5.01954,-0.37109 -4.64843,-4.46289 h -6.50586 l -2.04493,-4.83203 -5.01757,0.92968 -4.83399,-3.90429 -5.57617,1.11523 -4.08984,-4.27539 -3.34571,0.18555 c 0,0 49.42195,52.22632 51.49805,60.88867 15.03602,62.73663 -124.12389,69.26039 -178.24023,70.98047 -108.91862,2.1142 -160.51222,-33.84127 -166.31055,-40.58789 -8.35378,-9.71999 -8.69094,-20.8117 -0.99023,-34.64844 16.35091,-22.5109 51.27148,-61.2793 51.27148,-61.2793 z" />
    <path
       style="display:inline;fill:#333333;stroke:#000000;stroke-width:1px;stroke-linecap:butt;stroke-linejoin:miter;stroke-opacity:1"
       d="m 137.90374,502.79369 2.65228,22.91423 14.06049,-19.83393 -3.68967,-21.75543 z"
       id="path20302" />
    <path
       style="fill:#333333;stroke:#000000;stroke-width:1px;stroke-linecap:butt;stroke-linejoin:miter;stroke-opacity:1"
       d="m 709.0133,509.75588 -3.43092,23.8845 c 0,0 -2.2433,-5.80617 -7.6536,-11.74431 -5.41031,-5.93813 -7.38968,-5.80618 -7.38968,-5.80618 l 5.74153,-24.40698 z"
       id="path20343"
       sodipodi:nodetypes="ccsccc" />
    <ellipse
       style="opacity:1;fill:#ff0000;stroke:#000000;stroke-width:1;stroke-miterlimit:4;stroke-dasharray:none"
       id="path20350"
       cx="425.40543"
       cy="361.17245"
       rx="42.28677"
       ry="12.869886" />
    <ellipse
       style="opacity:1;fill:#1a1a1a;stroke:#000000;stroke-width:0.965611;stroke-miterlimit:4;stroke-dasharray:none"
       id="path20354"
       cx="424.27536"
       cy="394.2243"
       rx="9.559474"
       ry="7.4231429" />
    <path
       style="fill:#1a1a1a;stroke:#000000;stroke-width:1px;stroke-linecap:butt;stroke-linejoin:miter;stroke-opacity:1"
       d="m 323.71372,222.40881 -7.9196,12.20939 230.65839,3.29983 -9.8995,-11.8794 c 0,0 -59.06703,-4.28978 -102.62484,-4.28978 -43.55781,0 -110.21445,0.65996 -110.21445,0.65996 z"
       id="path20409" />
    <ellipse
       style="opacity:1;fill:#666666;stroke:#000000;stroke-width:1;stroke-miterlimit:4;stroke-dasharray:none"
       id="path20411"
       cx="427.98846"
       cy="280.4859"
       rx="139.91296"
       ry="32.998341" />
  </g>
  <g
     inkscape:groupmode="layer"
     id="layer1"
     inkscape:label="JagCD"
     style="display:inline;opacity:1">
    <g
       inkscape:groupmode="layer"
       id="layer2"
       inkscape:label="JagCD_back"
       style="display:inline;opacity:1">
      <path
         style="display:inline;opacity:1;fill:#333333;stroke:#000000;stroke-width:1px;stroke-linecap:butt;stroke-linejoin:miter;stroke-opacity:1"
         d="m 314.36814,126.66289 0.50869,-12.71716 234.50438,2.03475 1.01738,18.31271 z"
         id="path20169" />
    </g>
    <path
       style="display:inline;fill:#1a1a1a;stroke:#000000;stroke-width:1px;stroke-linecap:butt;stroke-linejoin:miter;stroke-opacity:1"
       d="m 252.26677,250.51086 0.43599,27.28538 c 0,0 5.27076,52.36134 192.85225,52.64617 149.9146,0.22763 158.39822,-47.83131 158.39822,-47.83131 l 3.59412,-26.24719 z"
       id="path20211"
       sodipodi:nodetypes="ccsccc" />
    <path
       style="display:inline;fill:#333333;stroke:#000000;stroke-width:1px;stroke-linecap:butt;stroke-linejoin:miter;stroke-opacity:1"
       d="m 210.4163,207.79445 0.47015,17.71654 c 0,0 9.49044,30.12877 136.44348,45.60408 57.09156,6.95934 122.94286,7.19889 187.1395,1.48704 58.05399,-5.16531 98.21063,-25.3549 109.18614,-37.46776 3.95184,-16.79532 5.43378,-22.22909 5.43378,-22.22909 z"
       id="path20199"
       sodipodi:nodetypes="ccssccc" />
    <path
       style="display:inline;fill:#333333;stroke:#000000;stroke-width:1px;stroke-linecap:butt;stroke-linejoin:miter;stroke-opacity:1"
       d="m 208.58051,172.34407 0.22095,32.03832 c 0,0 0.77341,3.99785 5.3029,6.62861 43.74888,25.40971 143.53901,36.45738 206.15002,37.78313 102.75223,2.17571 230.45495,-14.14106 232.00162,-42.42316 1.54668,-28.2821 1.54668,-25.85161 1.54668,-25.85161 z"
       id="path20196"
       sodipodi:nodetypes="ccssscc" />
    <path
       style="display:inline;fill:#666666;stroke:#000000;stroke-width:1px;stroke-linecap:butt;stroke-linejoin:miter;stroke-opacity:1"
       d="m 298.1175,131.19513 -23.66349,6.00943 -62.29673,30.3057 c 0,0 -9.68229,5.32251 2.85853,14.62833 14.88558,11.04573 80.19463,34.18748 222.06739,32.37883 157.66384,-2.00996 222.28371,-20.89076 215.85813,-35.66572 -3.59986,-8.27751 -65.14482,-36.18264 -65.14482,-36.18264 l -33.2335,-11.41353 -256.44551,-0.0604"
       id="path20167"
       sodipodi:nodetypes="cccsssccc" />
    <path
       style="fill:#666666;stroke:#000000;stroke-width:1px;stroke-linecap:butt;stroke-linejoin:miter;stroke-opacity:1"
       d="m 298.1175,131.19513 -45.09833,24.01339 c 0,0 -13.91703,7.20823 1.17139,13.47093 17.15647,7.12108 50.89078,16.90646 112.97419,19.24923 62.08341,2.34278 169.36024,1.41096 204.30732,-5.21602 82.13172,-9.543 25.77656,-32.25938 -1.59323,-45.6606 -47.72745,-18.73733 -79.48977,-19.39006 -128.85237,-21.67063 -78.4828,-3.51415 -142.90897,15.8137 -142.90897,15.8137 z"
       id="path20159"
       sodipodi:nodetypes="ccsscccc" />
    <path
       id="path20175"
       style="fill:#1a1a1a;stroke:#000000;stroke-width:1px;stroke-linecap:butt;stroke-linejoin:miter;stroke-opacity:1"
       d="m 590.68428,185.57103 0.0663,2.8814 c 0,0 5.15944,3.50139 9.84346,3.99445 5.42104,0.57064 29.24508,-6.93205 29.24508,-8.70219 v -7.56093 m -39.15484,9.38727 c 5.08686,5.08686 40.8995,-6.37079 38.86476,-9.42291 -2.03475,-3.05212 -40.39082,3.31867 -38.86476,9.42291 z" />
    <path
       style="fill:#b3b3b3;stroke:#000000;stroke-width:1px;stroke-linecap:butt;stroke-linejoin:miter;stroke-opacity:1"
       d="m 444.21855,152.90678 c 14.21975,5.2414 -0.30198,9.07545 -6.24362,9.5116 -8.1997,0.5857 -85.94899,-0.30647 -126.77013,-9.71367 -10.6328,-2.45032 3.2962,-5.67411 6.86727,-7.31243 5.11326,-2.34584 10.92888,-2.041 15.02594,-2.26071 16.79906,4.00942 32.9911,6.64826 57.20807,7.39141 8.28142,0.15873 31.93107,1.31498 53.91247,2.3838 z"
       id="path20163"
       sodipodi:nodetypes="ccssccc" />
    <path
       style="fill:none;stroke:#000000;stroke-width:1px;stroke-linecap:butt;stroke-linejoin:miter;stroke-opacity:1"
       d="m 286.68088,149.38289 c -0.33569,10.74214 87.95127,19.80582 165.83179,19.47013 79.95103,-0.34462 121.52047,-7.04952 122.86324,-15.44182 1.70048,-10.62792 -90.29737,-25.35852 -149.20656,-25.14575 -32.51047,0.11742 -124.38234,5.67562 -139.48847,21.11744 z"
       id="path20165"
       sodipodi:nodetypes="csssc" />
    <path
       style="fill:#333333;stroke:#000000;stroke-width:1px;stroke-linecap:butt;stroke-linejoin:miter;stroke-opacity:1"
       d="m 272.88498,175.2495 c 0,0 -21.79075,10.78548 -14.50306,19.26571 7.2877,8.48023 26.50071,4.90263 29.41579,4.24012 2.91508,-0.66252 43.92894,-8.78194 42.90003,-13.26871 -30.4447,-2.36671 -57.81276,-10.23712 -57.81276,-10.23712 z"
       id="path20216"
       sodipodi:nodetypes="csscc" />
    <path
       style="fill:#1a1a1a;stroke:#000000;stroke-width:1px;stroke-linecap:butt;stroke-linejoin:miter;stroke-opacity:1"
       d="m 272.88498,175.2495 c 0,0 6.89116,20.82792 15.67075,21.41323 8.77958,0.5853 41.55671,-6.49366 42.14201,-11.17611 -32.58932,-2.98181 -57.81276,-10.23712 -57.81276,-10.23712 z"
       id="path20214"
       sodipodi:nodetypes="cscc" />
  </g>
  <g
     inkscape:groupmode="layer"
     id="layer8"
     inkscape:label="skunk"
     style="display:inline;opacity:1">
    <g
       id="g20859"
       transform="translate(9.1568095,-237.84097)">
      <path
         style="fill:#210052;fill-opacity:1;stroke:#000000;stroke-width:1px;stroke-linecap:butt;stroke-linejoin:miter;stroke-opacity:1"
         d="m 212.06393,266.9043 2.5e-4,12.33233 h 19.44997 v 7.01474 h -11.15982 v 28.05898 h -7.3336 v 75.24909 H 630.92544 V 305.9043 h -6.62726 v -18 h -10.72986 v -8 h 17.98829 v -13 z"
         id="path20503"
         sodipodi:nodetypes="ccccccccccccccccc" />
      <path
         style="fill:#ffffff;stroke:none;stroke-width:1px;stroke-linecap:butt;stroke-linejoin:miter;stroke-opacity:1"
         d="m 303.66474,330.62723 c 5.61476,8.22707 21.14414,14.83246 34.71426,12.93895 12.95129,-1.80716 19.10432,-22.73066 10.09868,-24.61556 -13.57011,-2.84025 -20.72185,-7.47183 -17.04154,-14.83245 5.9961,-11.9922 17.88487,-13.97365 23.03764,-14.83245 7.57402,-1.26234 14.83246,-2.84026 16.72596,0.31558 1.89351,3.15584 6.31168,11.9922 1.26233,11.9922 -5.04934,0 -17.35711,-4.1026 -22.09087,-1.26234 -4.73377,2.84025 -5.99611,4.10259 -5.68052,7.8896 0.31558,3.78701 7.25843,2.20909 11.36102,5.9961 4.1026,3.78701 5.9961,14.83245 4.1026,21.45972 -1.89351,6.62726 -15.46362,17.04154 -24.29998,18.30387 -8.83635,1.26234 -34.08308,-2.52467 -35.661,-9.15193 -1.57792,-6.62727 -3.54418,-13.70785 3.47142,-14.20129 z"
         id="path20505"
         sodipodi:nodetypes="cssssssssssssc" />
      <path
         style="fill:#ffffff;stroke:none;stroke-width:1px;stroke-linecap:butt;stroke-linejoin:miter;stroke-opacity:1"
         d="m 374.98675,318.63504 c 2.84026,-4.73377 6.31168,-20.51297 11.36102,-22.09089 5.04935,-1.57792 9.10219,-7.24268 8.52078,-2.20909 -0.47214,4.08754 -7.25844,8.83636 -8.52077,12.93895 -1.26234,4.10259 -2.82296,10.29497 -0.94676,11.04545 3.15584,1.26233 20.51297,-18.30389 18.61947,-20.19739 -1.89351,-1.89351 4.73375,4.41818 3.47142,7.25844 -1.26234,2.84025 -6.94285,10.41427 -10.41428,11.99219 -3.47142,1.57792 -11.04544,3.47142 -6.62726,7.8896 4.41818,4.41818 9.15194,21.7753 4.73377,25.56231 -4.41818,3.78701 -5.68052,-3.47142 -6.31169,-8.83635 -0.63117,-5.36493 -1.26234,-16.09479 -5.68051,-15.77921 -4.41818,0.31559 -5.04935,-3.78701 -5.68052,0.63117 -0.63117,4.41818 -4.10259,17.9883 -7.57402,20.19738 -3.47142,2.20909 -8.20518,11.67661 -7.8896,5.9961 0.31559,-5.68051 10.41428,-23.03764 10.09869,-24.61556 -0.31558,-1.57792 -5.36493,-0.31558 -5.04934,-2.84025 0.31558,-2.52468 5.04934,-0.94676 6.94285,-4.73377 1.8935,-3.787 0.94675,-2.20908 0.94675,-2.20908 z"
         id="path20507"
         sodipodi:nodetypes="csssssssssssssssssc" />
      <path
         style="fill:#ffffff;stroke:none;stroke-width:1px;stroke-linecap:butt;stroke-linejoin:miter;stroke-opacity:1"
         d="m 419.16852,296.85973 c 3.15584,1.26234 7.25844,4.73376 4.73376,8.20519 -2.52467,3.47142 -10.09869,17.35712 -10.72986,20.51297 -0.63116,3.15584 -6.31168,12.93894 -3.78701,13.25453 2.52468,0.31558 6.62727,-1.57792 9.78311,-5.68052 3.15584,-4.10259 12.93895,-29.6649 15.46362,-30.61165 2.52467,-0.94675 7.25843,-1.89351 7.57402,1.8935 0.31558,3.78701 -1.8935,12.62337 -6.31168,17.98829 -4.41818,5.36493 -6.31168,13.57012 -5.9961,15.77921 0.31558,2.20909 1.8935,4.10259 3.47143,2.84026 1.57792,-1.26234 17.98828,-36.60776 23.6688,-38.50127 5.68051,-1.8935 7.88961,-1.57792 7.88961,1.26234 0,2.84026 -0.94676,19.56622 -1e-5,26.19348 0.94676,6.62727 0.31559,8.20519 3.15584,4.1026 2.84026,-4.1026 1.89351,-22.40647 3.47143,-26.50906 1.57792,-4.10259 2.28828,-8.82965 11.36102,-5.04935 3.78702,1.57791 0.31559,8.52077 -1.26233,13.8857 -1.57792,5.36493 -2.20909,11.36103 -5.68051,15.7792 -3.47143,4.41818 -9.15194,23.35323 -11.67661,20.19738 -1.19917,-1.49897 -7.88961,-20.82855 -7.88961,-26.82464 0,-5.9961 0,-12.93895 -1.26233,-10.09869 -1.26234,2.84025 -8.52077,11.67661 -10.09869,16.41037 -1.57792,4.73376 -12.30778,27.7714 -16.09479,28.08698 -3.78701,0.31559 -5.9961,1.89351 -4.73376,-0.63117 1.26233,-2.52467 3.15584,-2.84025 3.15584,-5.99609 0,-3.15585 3.15584,-7.88961 3.15584,-7.88961 0,0 0.63117,-3.15584 -1.26234,-1.8935 -1.8935,1.26234 -5.36493,3.78701 -7.25843,2.84026 -1.89351,-0.94676 -2.84026,-8.52077 -2.20909,-9.78311 0.63117,-1.26234 -0.31558,-1.57792 -1.8935,1.26234 -1.57793,2.84025 -15.77921,12.93894 -15.77921,2.20908 0,-10.72986 8.83636,-29.98048 9.78311,-32.82074 0.94675,-2.84026 4.10259,-10.72986 7.25843,-10.41428 z"
         id="path20509"
         sodipodi:nodetypes="csssssssssssssssssssssssscssssssc" />
      <path
         style="fill:#ffffff;stroke:none;stroke-width:1px;stroke-linecap:butt;stroke-linejoin:miter;stroke-opacity:1"
         d="m 492.06845,308.85193 c 0.31558,-5.04935 -3.78701,-7.57402 -1.26234,-9.46752 2.52467,-1.89351 6.94285,-2.84026 7.88961,-1.57792 0.94675,1.26234 2.20908,-3.15584 3.787,-2.20909 1.57792,0.94675 -0.31558,13.8857 -2.20909,15.77921 -1.8935,1.8935 -4.10259,7.25843 -5.36493,12.30777 -1.26233,5.04935 -5.68051,24.93114 -7.8896,25.56231 -2.20909,0.63117 -3.15584,2.20909 -4.41818,1.57792 -1.26233,-0.63117 -1.57791,5.04935 -4.41817,4.1026 -2.84026,-0.94675 -1.89351,-0.94676 -1.26234,-3.47143 0.63117,-2.52467 14.20128,-36.29217 15.14804,-42.60385 z"
         id="path20511"
         sodipodi:nodetypes="csssssssssc" />
      <path
         style="fill:#ffffff;stroke:none;stroke-width:1px;stroke-linecap:butt;stroke-linejoin:miter;stroke-opacity:1"
         d="m 505.63856,319.58179 c 1.89351,-3.78701 8.20519,-12.62337 11.9922,-14.83245 3.78701,-2.20909 11.99219,-9.46753 11.99219,-11.67661 0,-2.20909 3.47142,-1.57793 1.8935,0.31558 -1.57792,1.8935 -4.73376,6.31168 -0.94675,4.10259 3.78701,-2.20909 9.46753,-11.9922 8.83636,-7.57402 -0.63117,4.41818 -5.36493,7.88961 -3.78701,7.25844 1.57792,-0.63117 5.68051,-4.73376 4.73376,-2.52467 -0.94675,2.20909 -4.10259,3.47142 -6.62727,6.62726 -8.31443,7.81503 -9.71783,10.19132 -11.67661,12.30778 -5.9961,6.31168 -10.72986,12.62336 -12.62336,11.04544 -1.8935,-1.57792 -3.78701,-2.52467 -3.78701,-5.04934 z"
         id="path20513"
         sodipodi:nodetypes="csssssssccsc" />
      <path
         id="path20515"
         style="fill:#ffffff;stroke:none;stroke-width:1px;stroke-linecap:butt;stroke-linejoin:miter;stroke-opacity:1"
         d="m 509.74087,329.67969 c -6.31168,0 -9.4668,4.73438 -9.4668,4.73438 -1.26233,2.84026 -0.6324,1.26181 2.52344,5.04882 3.15584,3.78701 -5.69576,10.0095 -4.10156,25.24805 1.19032,11.37798 22.52883,10.77312 26.82421,11.04492 6.62296,0.41909 12.30737,-5.99588 14.83204,-10.41406 2.52467,-4.41818 -2.30414,-0.32054 -5.9961,1.26172 -4.41818,1.8935 -3.78596,1.8932 -10.09765,0.63086 -6.31168,-1.26234 -0.9221,-9.86768 2.83984,-15.7793 4.41819,-6.94284 3.15615,-11.99199 -0.63086,-16.41016 -3.31165,-3.86357 -10.41487,-5.36523 -16.72656,-5.36523 z m 2.24804,2.56445 c 2.95861,0.0395 6.43113,0.43534 8.48243,1.85547 4.1026,2.84026 4.41735,8.20405 -0.31641,18.30274 -4.73376,10.09869 -5.6804,10.73005 -2.20898,13.57031 7.21256,5.90121 17.989,1.89442 14.51757,4.10352 -18.3967,7.60662 -29.90798,-6.42338 -24.30047,-17.04266 3.15584,-7.88961 5.68062,-5.68061 4.73386,-12.30788 -0.732,-5.12394 -6.31229,-8.20415 -6.31229,-8.20415 0,0 2.44569,-0.31679 5.40429,-0.27735 z"
         sodipodi:nodetypes="scsssssssssssssccscs" />
      <path
         style="fill:#ffffff;stroke:none;stroke-width:1px;stroke-linecap:butt;stroke-linejoin:miter;stroke-opacity:1"
         d="m 540.98398,305.06492 c 4.0073,-1.59999 9.93661,-3.60007 12.93895,-0.63117 2.20908,2.84026 2.20908,3.78701 -3.78701,3.47143 -4.09692,-0.21563 -4.73377,0.63116 -3.15585,3.47142 1.57792,2.84025 3.15585,7.57402 1e-5,9.78311 -7.28505,5.09953 -17.35713,2.20909 -17.35713,0.31558 0,-1.8935 -3.15584,-7.25843 0,-6.62726 3.15584,0.63117 5.29565,4.1026 8.20519,4.10259 3.15584,0 8.20518,-1.57792 4.41818,-5.04935 -2.94404,-3.05821 -6.66236,-7.30185 -1.26234,-8.83635 z"
         id="path20520"
         sodipodi:nodetypes="ccsssssscc" />
      <path
         style="fill:#ffffff;stroke:none;stroke-width:1px;stroke-linecap:butt;stroke-linejoin:miter;stroke-opacity:1"
         d="m 558.21948,303.70208 c 3.15584,-1.57792 15.27669,-2.59701 15.58524,-1.16183 0.67645,3.14645 -0.44424,3.04126 -2.96891,3.04126 -2.52467,0 -6.92173,-0.28743 -7.5529,1.60608 -0.63117,1.8935 -2.06635,3.32165 0.14274,3.00606 2.20909,-0.31558 6.61045,-0.96535 7.01519,0.15681 0,0 -0.75279,3.12065 -3.27746,3.12065 -2.52468,0 -5.88152,-0.28743 -6.51268,1.60608 -0.63117,1.8935 -0.91156,3.22114 1.61312,2.58998 2.52467,-0.63117 9.64036,-2.2744 9.32478,-0.38089 -0.31559,1.8935 -0.64936,4.78565 -2.20205,4.5046 -4.15891,-0.75279 -15.59228,0.9186 -15.90083,-0.21508 -0.33402,-1.22726 2.29292,-7.70524 3.27479,-10.40461 1.26218,-3.47003 0.076,-5.76353 1.45897,-7.46911 z"
         id="path20522"
         sodipodi:nodetypes="cssssssssssssc" />
      <ellipse
         style="fill:#ffffff;fill-opacity:1;stroke:none;stroke-width:1;stroke-miterlimit:4;stroke-dasharray:none;stroke-opacity:1"
         id="path20524"
         cx="378.33789"
         cy="373.81113"
         rx="7.1181302"
         ry="7.5630131" />
      <ellipse
         style="fill:#ffffff;fill-opacity:1;stroke:none;stroke-width:1;stroke-miterlimit:4;stroke-dasharray:none;stroke-opacity:1"
         id="path20524-6"
         cx="400.58206"
         cy="373.81113"
         rx="7.1181302"
         ry="7.5630131" />
      <ellipse
         style="fill:#ffffff;fill-opacity:1;stroke:none;stroke-width:1;stroke-miterlimit:4;stroke-dasharray:none;stroke-opacity:1"
         id="path20524-0"
         cx="424.16086"
         cy="373.81113"
         rx="7.1181302"
         ry="7.5630131" />
      <ellipse
         style="fill:#ffffff;fill-opacity:1;stroke:none;stroke-width:1;stroke-miterlimit:4;stroke-dasharray:none;stroke-opacity:1"
         id="path20524-1"
         cx="445.96011"
         cy="373.81113"
         rx="7.1181302"
         ry="7.5630131" />
      <ellipse
         style="fill:#ffffff;fill-opacity:1;stroke:none;stroke-width:1;stroke-miterlimit:4;stroke-dasharray:none;stroke-opacity:1"
         id="path20524-5"
         cx="468.64917"
         cy="373.81113"
         rx="7.1181302"
         ry="7.5630131" />
      <path
         style="display:inline;fill:#f4e3d7;stroke:#000000;stroke-width:1px;stroke-linecap:butt;stroke-linejoin:miter;stroke-opacity:1"
         d="m 253.78587,266.56661 v -17.46932 h 58.07371 V 266.724 Z"
         id="path20585" />
      <path
         style="display:inline;fill:#f4e3d7;stroke:#000000;stroke-width:1px;stroke-linecap:butt;stroke-linejoin:miter;stroke-opacity:1"
         d="m 536.44275,266.56661 v -15.58075 h 57.28681 V 266.724 Z"
         id="path20587" />
      <path
         style="display:inline;fill:#cccccc;stroke:#000000;stroke-width:1px;stroke-linecap:butt;stroke-linejoin:miter;stroke-opacity:1"
         d="m 536.44275,250.98586 v -16.8398 h -2.67548 v -3.30501 h 63.26729 v 4.72144 h -3.30501 l 10e-6,15.42337 z"
         id="path20589"
         sodipodi:nodetypes="ccccccccc" />
      <path
         style="display:inline;fill:#b3b3b3;stroke:#000000;stroke-width:1px;stroke-linecap:butt;stroke-linejoin:miter;stroke-opacity:1"
         d="m 533.76727,230.84105 -2.75418,-2.75418 h 62.55908 l 3.46239,2.75418 z"
         id="path20591" />
      <path
         style="display:inline;fill:#999999;stroke:#000000;stroke-width:1px;stroke-linecap:butt;stroke-linejoin:miter;stroke-opacity:1"
         d="m 531.01309,228.08687 v 3.22632 l 2.75418,2.83287 v -3.30501 z"
         id="path20593" />
      <path
         style="display:inline;fill:#999999;stroke:#000000;stroke-width:1px;stroke-linecap:butt;stroke-linejoin:miter;stroke-opacity:1"
         d="m 536.44275,250.98586 -2.04596,-2.04596 v -14.79384 h 2.04596 z"
         id="path20595" />
      <path
         style="display:inline;fill:#e9c6af;stroke:#000000;stroke-width:1px;stroke-linecap:butt;stroke-linejoin:miter;stroke-opacity:1"
         d="m 534.39679,248.9399 v 17.7841 h 2.20334 v -16.0529 z"
         id="path20597" />
      <path
         style="display:inline;fill:#cccccc;stroke:#000000;stroke-width:1px;stroke-linecap:butt;stroke-linejoin:miter;stroke-opacity:1"
         d="M 253.78587,249.09729 V 233.5043 h -3.34849 v -4.23706 h 65.35655 l 1.9e-4,5.35096 -3.93419,1e-4 -3.5e-4,14.47899 z"
         id="path20599"
         sodipodi:nodetypes="ccccccccc" />
      <path
         style="display:inline;fill:#b3b3b3;stroke:#000000;stroke-width:1px;stroke-linecap:butt;stroke-linejoin:miter;stroke-opacity:1"
         d="m 250.43738,229.26724 4.45016,-4.72144 h 64.84111 l -3.93472,4.72144 z"
         id="path20601" />
      <path
         style="display:inline;fill:#b3b3b3;stroke:#000000;stroke-width:1px;stroke-linecap:butt;stroke-linejoin:miter;stroke-opacity:1"
         d="m 319.72865,224.5458 v 5.82311 l -3.93453,4.24929 -1.9e-4,-5.35096 z"
         id="path20603" />
      <path
         style="display:inline;fill:#b3b3b3;stroke:#000000;stroke-width:1px;stroke-linecap:butt;stroke-linejoin:miter;stroke-opacity:1"
         d="m 311.85958,249.09729 4.09191,-3.46239 v -11.17408 l -0.47986,0.12858 -3.6117,0.0289 z"
         id="path20605" />
      <path
         style="display:inline;fill:#e9c6af;stroke:#000000;stroke-width:1px;stroke-linecap:butt;stroke-linejoin:miter;stroke-opacity:1"
         d="m 315.95149,245.6349 v 21.0891 h -4.09191 v -17.62671 z"
         id="path20607" />
      <path
         style="display:inline;fill:#cccccc;stroke:#000000;stroke-width:1px;stroke-linecap:butt;stroke-linejoin:miter;stroke-opacity:1"
         d="m 409.90815,259.48445 v 7.08216 h 28.32864 v -7.08231 z"
         id="path20609"
         sodipodi:nodetypes="ccccc" />
      <path
         style="display:inline;fill:#333333;stroke:#000000;stroke-width:1px;stroke-linecap:butt;stroke-linejoin:miter;stroke-opacity:1"
         d="m 409.90815,259.48445 -2.5181,-3.61977 h 33.52223 l -2.67549,3.61962 z"
         id="path20611"
         sodipodi:nodetypes="ccccc" />
      <path
         style="display:inline;fill:#999999;stroke:#000000;stroke-width:1px;stroke-linecap:butt;stroke-linejoin:miter;stroke-opacity:1"
         d="M 407.39005,255.86468 V 266.724 l 2.5181,-0.15739 v -7.08216 z"
         id="path20613" />
      <path
         style="display:inline;fill:#999999;stroke:#000000;stroke-width:1px;stroke-linecap:butt;stroke-linejoin:miter;stroke-opacity:1"
         d="m 440.91228,255.86468 v 10.70193 h -2.67549 v -7.08231 z"
         id="path20615" />
      <path
         style="display:inline;fill:#aa8800;stroke:#000000;stroke-width:1px;stroke-linecap:butt;stroke-linejoin:miter;stroke-opacity:1"
         d="m 243.43084,389.5901 v 33.80017 l 1.95009,1.95003 h 261.68 l 1.95043,-1.95 v -34.01687 h 7.85421 v 34.01687 l 1.95036,1.94998 78.217,2e-5 1.94972,-1.95 v -34.01687 z"
         id="path20633"
         sodipodi:nodetypes="ccccccccccccc" />
    </g>
  </g>
</svg>
