<?xml version="1.0" encoding="UTF-8" standalone="no"?>
<svg
   xmlns:dc="http://purl.org/dc/elements/1.1/"
   xmlns:cc="http://creativecommons.org/ns#"
   xmlns:rdf="http://www.w3.org/1999/02/22-rdf-syntax-ns#"
   xmlns:svg="http://www.w3.org/2000/svg"
   xmlns="http://www.w3.org/2000/svg"
   xmlns:sodipodi="http://sodipodi.sourceforge.net/DTD/sodipodi-0.dtd"
   xmlns:inkscape="http://www.inkscape.org/namespaces/inkscape"
   version="1.1"
   id="svg885"
   width="1338.59"
   height="806.51648"
   viewBox="0 0 1338.59 806.51648"
   sodipodi:docname="laptop.svg"
   inkscape:version="1.0.1 (c497b03c, 2020-09-10)">
  <metadata
     id="metadata891">
    <rdf:RDF>
      <cc:Work
         rdf:about="">
        <dc:format>image/svg+xml</dc:format>
        <dc:type
           rdf:resource="http://purl.org/dc/dcmitype/StillImage" />
        <dc:title></dc:title>
      </cc:Work>
    </rdf:RDF>
  </metadata>
  <defs
     id="defs889" />
  <sodipodi:namedview
     pagecolor="#ffffff"
     bordercolor="#666666"
     borderopacity="1"
     objecttolerance="10"
     gridtolerance="10"
     guidetolerance="10"
     inkscape:pageopacity="0"
     inkscape:pageshadow="2"
     inkscape:window-width="1252"
     inkscape:window-height="711"
     id="namedview887"
     showgrid="false"
     inkscape:zoom="0.33293422"
     inkscape:cx="676.04095"
     inkscape:cy="606.33185"
     inkscape:window-x="41"
     inkscape:window-y="25"
     inkscape:window-maximized="0"
     inkscape:current-layer="layer1"
     lock-margins="true"
     fit-margin-top="20"
     fit-margin-left="20"
     fit-margin-right="20"
     fit-margin-bottom="20" />
  <g
     inkscape:groupmode="layer"
     id="layer1"
     inkscape:label="laptop"
     style="opacity:1"
     transform="translate(0.8860523,16.471957)">
    <path
       style="fill:#000000;stroke:#000000;stroke-width:1px;stroke-linecap:butt;stroke-linejoin:miter;stroke-opacity:1"
       d="m 547.93935,645.73234 102.834,-560.074993 c 4.14433,-7.314366 4.08108,-12.187405 18.45868,-15.554784 L 1294.4387,6.4675348 c 6.7316,1.030312 13.7193,5.2419462 14.2353,15.3477202 L 1207.5912,689.01715 c -2.5191,8.87234 -7.6207,20.01426 -20.1838,20.11389 z"
       id="path897"
       sodipodi:nodetypes="cccccccc" />
    <path
       style="fill:#00ccff;stroke:none;stroke-width:1px;stroke-linecap:butt;stroke-linejoin:miter;stroke-opacity:1"
       d="M 573.52864,607.48351 667.98491,95.073638 1279.7899,38.2764 1188.4205,641.43838 Z"
       id="path913" />
    <path
       style="fill:#999999;stroke:#000000;stroke-width:1px;stroke-linecap:butt;stroke-linejoin:miter;stroke-opacity:1"
       d="m 1183.1078,711.86701 c 19.9759,3.96995 27.3186,-4.76156 33.1422,-18.6425 L 1317.0575,29.344663 C 1318.8047,10.483885 1304.7558,2.8367772 1290.0159,4.1773965 L 669.23203,70.102563 1294.4387,6.4675348 c 7.4621,-0.5245592 15.5111,8.2098092 14.2353,15.3477202 L 1207.5912,689.01715 c -0.771,2.20109 -2.3126,20.71265 -26.1592,20.11389 z"
       id="path915"
       sodipodi:nodetypes="cccccccccc" />
    <path
       style="fill:#e6e6e6;stroke:#000000;stroke-width:1px;stroke-linecap:butt;stroke-linejoin:miter;stroke-opacity:1"
       d="M 687.73079,768.33169 666.50747,757.83927 1195.898,694.40778 v 5.96161 l -30.2849,24.80028 z"
       id="path922"
       sodipodi:nodetypes="cccccc" />
    <path
       style="display:inline;fill:#cccccc;stroke:#000000;stroke-width:1px;stroke-linecap:butt;stroke-linejoin:miter;stroke-opacity:1"
       d="m 20.030994,697.74629 22.6541,12.6386 611.899166,58.42373 c 10.81146,0.91506 21.5476,1.20298 33.14653,-0.47693 0,0 -11.86281,-10.00034 -28.13878,-11.44628 z"
       id="path919"
       sodipodi:nodetypes="cccccc" />
    <path
       style="fill:#4d4d4d;stroke:#000000;stroke-width:1px;stroke-linecap:butt;stroke-linejoin:miter;stroke-opacity:1"
       d="m 1175.9363,686.72216 c 16.7676,1.04868 26.731,7.23949 15.7286,9.12107 l -512.74999,60.95885 c -15.16126,2.05136 -29.65072,2.71787 -45.95689,1.26421 L 26.034614,699.70812 c -8.128495,-0.27552 -8.556427,-4.66295 -1.191993,-5.16917 l 7.480936,-0.97532 19.352381,-4.40263 496.263412,-43.42866 z"
       id="path917"
       sodipodi:nodetypes="cccccccccc" />
    <path
       style="fill:#666666;stroke:#000000;stroke-width:1px;stroke-linecap:butt;stroke-linejoin:miter;stroke-opacity:1"
       d="M 224.98392,700.91144 421.5358,684.84116 642.19311,702.7657 451.20401,721.92642 Z"
       id="path924" />
    <path
       style="fill:#666666;stroke:#000000;stroke-width:1px;stroke-linecap:butt;stroke-linejoin:miter;stroke-opacity:1"
       d="M 304.85194,668.81643 885.84399,715.26202 1124.8276,691.61699 541.12899,648.07342 Z"
       id="path926" />
  </g>
</svg>
